<svg version="1.1" alignment-baseline="central" width="360" height="790" xmlns="http://www.w3.org/2000/svg">
    <rect x="5" y="5" width="350" height="780" fill="none" stroke="#000000"/>
    <rect x="10" y="10" width="340" height="770" fill="none" stroke="#000000"/>
    <rect x="110" y="540"  width="240" height="240" fill="#000000" stroke="#000000"/>
    <rect x="5" y="5"  width="10" height="10" fill="#000000" stroke="#000000"/>
    <rect x="5" y="245"  width="10" height="10" fill="#000000" stroke="#000000"/>
    <rect x="5" y="490"  width="10" height="10" fill="#000000" stroke="#000000"/>
    <rect x="5" y="775"  width="10" height="10" fill="#000000" stroke="#000000"/>
    <rect x="345" y="245"  width="10" height="10" fill="#000000" stroke="#000000"/>
    <rect x="345" y="490"  width="10" height="10" fill="#000000" stroke="#000000"/>
    <rect x="345" y="5"  width="10" height="10" fill="#000000" stroke="#000000"/>
    <rect x="345" y="775"  width="10" height="10" fill="#000000" stroke="#000000"/>
    <line x1="5" y1="5" x2="350" y2="780" stroke="red" stroke-dasharray="10" />
    <line x1="5" y1="785" x2="355" y2="5" stroke="red" stroke-dasharray="10" />
    <line x1="5" y1="60" x2="355" y2="60" stroke="red" />
    <line x1="5" y1="120" x2="355" y2="120" stroke="red" />
    <line x1="5" y1="180" x2="355" y2="180" stroke="red" />
    <line x1="5" y1="240" x2="355" y2="240" stroke="red" />
    <line x1="5" y1="300" x2="355" y2="300" stroke="red" />
    <line x1="5" y1="360" x2="355" y2="360" stroke="red" />
    <line x1="5" y1="420" x2="355" y2="420" stroke="red" />
    <line x1="5" y1="480" x2="355" y2="480" stroke="red" />
    <line x1="5" y1="540" x2="355" y2="540" stroke="red" />
    <line x1="5" y1="600" x2="355" y2="600" stroke="red" />
    <line x1="5" y1="660" x2="355" y2="660" stroke="red" />
    <line x1="5" y1="720" x2="355" y2="720" stroke="red" />
    <text x="50%" y="5%" dominant-baseline="middle" text-anchor="middle">-- Brede 3meter --</text>
    <text x="5%" y="35%" style="writing-mode: tb; glyph-orientation-vertical: 90;">
        -- Længde 7meter --
    </text>
</svg>



