<svg width="800" height="600" xmlns="http://www.w3.org/2000/svg">
    <g>
        <title>background</title>
        <rect fill="#ffffff" id="canvas_background" height="602" width="802" y="-1" x="-1"/>
    </g>
    <g>
        <title>Layer 1</title>
        <rect height="296" width="473" y="141" x="163.5" stroke-width="1.5" stroke="#000" fill="#fff"/>
        <rect stroke="#000" id="svg_13" height="249" width="103" y="162" x="528.5" fill-opacity="null" stroke-opacity="null" stroke-width="1.5" fill="#fff"/>
        <rect height="8" width="474" y="160.45313" x="162" fill-opacity="null" stroke-opacity="null" stroke-width="1.5" stroke="#000" fill="#fff"/>
        <rect height="8" width="474" y="407.45313" x="163" fill-opacity="null" stroke-opacity="null" stroke-width="1.5" stroke="#000" fill="#fff"/>
        <rect height="9" width="9" y="160.45313" x="410" fill-opacity="null" stroke-opacity="null" stroke-width="1.5" stroke="#000" fill="#fff"/>
        <rect stroke="#000" id="svg_7" height="9" width="9" y="405" x="230" fill-opacity="null" stroke-opacity="null" stroke-width="1.5" fill="#fff"/>
        <rect height="9" width="9" y="160" x="230" fill-opacity="null" stroke-opacity="null" stroke-width="1.5" stroke="#000" fill="#fff"/>
        <rect height="9" width="9" y="159.45313" x="624" fill-opacity="null" stroke-opacity="null" stroke-width="1.5" stroke="#000" fill="#fff"/>
        <rect height="9" width="9" y="405.45313" x="410" fill-opacity="null" stroke-opacity="null" stroke-width="1.5" stroke="#000" fill="#fff"/>
        <rect height="9" width="9" y="405" x="623.5" fill-opacity="null" stroke-opacity="null" stroke-width="1.5" stroke="#000" fill="#fff"/>
        <rect height="9" width="9" y="160.45313" x="525" fill-opacity="null" stroke-opacity="null" stroke-width="1.5" stroke="#000" fill="#fff"/>
        <rect height="9" width="9" y="405.45313" x="525" fill-opacity="null" stroke-opacity="null" stroke-width="1.5" stroke="#000" fill="#fff"/>
        <rect height="9" width="9" y="285" x="525" fill-opacity="null" stroke-opacity="null" stroke-width="1.5" stroke="#000" fill="#fff"/>
        <rect height="9" width="9" y="285" x="626" fill-opacity="null" stroke-opacity="null" stroke-width="1.5" stroke="#000" fill="#fff"/>
        <line stroke="#000" stroke-dasharray="2,2" y2="408.5" x2="528.5" y1="167.5" x1="207.5"/>
        <line id="svg_19" y2="406.5" x2="206.5" y1="170.5" x1="524.5" fill-opacity="null" stroke-opacity="null" stroke-dasharray="2,2" stroke-width="1.5" stroke="#000" fill="none"/>
    </g>
</svg>